<svg xmlns="http://www.w3.org/2000/svg" xmlns:xlink="http://www.w3.org/1999/xlink" width="445.922" height="419.996" viewBox="0 0 445.922 419.996">
  <defs>
    <filter id="Elipse_11675" x="204" y="180.458" width="234" height="234" filterUnits="userSpaceOnUse">
      <feOffset dy="3" input="SourceAlpha"/>
      <feGaussianBlur stdDeviation="3" result="blur"/>
      <feFlood flood-opacity="0.161"/>
      <feComposite operator="in" in2="blur"/>
      <feComposite in="SourceGraphic"/>
    </filter>
    <clipPath id="clip-path">
      <path id="Trazado_999266" data-name="Trazado 999266" d="M288.411,124.827a71.6,71.6,0,1,1,109.17,60.958q-1.909,1.18-3.9,2.241a71.617,71.617,0,0,1-105.273-63.2M360.012,0a124.827,124.827,0,1,0,60.166,234.214q1.916-1.182,3.91-2.249A124.835,124.835,0,0,0,360.012,0Z" transform="translate(-235.185)" fill="#ff9d1c"/>
    </clipPath>
    <clipPath id="clip-path-2">
      <path id="Trazado_999267" data-name="Trazado 999267" d="M168.178,332.053a71.6,71.6,0,1,1,71.6,71.6,71.6,71.6,0,0,1-71.6-71.6m-53.226,0A124.826,124.826,0,1,0,239.78,207.228,124.828,124.828,0,0,0,114.952,332.053" transform="translate(-114.952 -207.228)" fill="#2fcbec"/>
    </clipPath>
    <clipPath id="clip-path-3">
      <path id="Trazado_999270" data-name="Trazado 999270" d="M445.623,269.779a71.607,71.607,0,1,1-37.936,63.2c0-.176.007-.352.007-.529H354.469c0,.177-.007.352-.007.529A124.826,124.826,0,1,0,497.288,209.452a125.276,125.276,0,0,1-51.665,60.327" transform="translate(-354.462 -209.452)" fill="#1d7083"/>
    </clipPath>
    <filter id="Elipse_11672" x="142" y="46.458" width="162" height="162" filterUnits="userSpaceOnUse">
      <feOffset dy="3" input="SourceAlpha"/>
      <feGaussianBlur stdDeviation="3" result="blur-2"/>
      <feFlood flood-opacity="0.161"/>
      <feComposite operator="in" in2="blur-2"/>
      <feComposite in="SourceGraphic"/>
    </filter>
    <filter id="Elipse_11673" x="44" y="216.458" width="162" height="162" filterUnits="userSpaceOnUse">
      <feOffset dy="3" input="SourceAlpha"/>
      <feGaussianBlur stdDeviation="3" result="blur-3"/>
      <feFlood flood-opacity="0.161"/>
      <feComposite operator="in" in2="blur-3"/>
      <feComposite in="SourceGraphic"/>
    </filter>
    <filter id="Trazado_999271" x="240" y="216.458" width="162" height="162" filterUnits="userSpaceOnUse">
      <feOffset dy="3" input="SourceAlpha"/>
      <feGaussianBlur stdDeviation="3" result="blur-4"/>
      <feFlood flood-opacity="0.161"/>
      <feComposite operator="in" in2="blur-4"/>
      <feComposite in="SourceGraphic"/>
    </filter>
  </defs>
  <g id="Grupo_1165240" data-name="Grupo 1165240" transform="translate(-577 -4502.542)">
    <g transform="matrix(1, 0, 0, 1, 577, 4502.54)" filter="url(#Elipse_11675)">
      <circle id="Elipse_11675-2" data-name="Elipse 11675" cx="108" cy="108" r="108" transform="translate(213 186.46)" fill="#fff"/>
    </g>
    <g id="Grupo_1165239" data-name="Grupo 1165239">
      <g id="Grupo_1165238" data-name="Grupo 1165238" transform="translate(-65.389 4.801)">
        <g id="Grupo_1164310" data-name="Grupo 1164310" transform="translate(740.916 4497.741)">
          <g id="Grupo_1165231" data-name="Grupo 1165231" clip-path="url(#clip-path)">
            <rect id="Rectángulo_412714" data-name="Rectángulo 412714" width="249.653" height="249.653" transform="translate(0 0)" fill="#ff9d1c"/>
          </g>
        </g>
        <g id="Grupo_1164311" data-name="Grupo 1164311" transform="translate(642.389 4667.557)">
          <g id="Grupo_1165233" data-name="Grupo 1165233" clip-path="url(#clip-path-2)">
            <rect id="Rectángulo_412715" data-name="Rectángulo 412715" width="249.653" height="249.652" transform="translate(0 0)" fill="#2fcbec"/>
          </g>
        </g>
        <g id="Grupo_1164312" data-name="Grupo 1164312" transform="translate(838.659 4669.379)">
          <g id="Grupo_1165237" data-name="Grupo 1165237" clip-path="url(#clip-path-3)">
            <rect id="Rectángulo_412717" data-name="Rectángulo 412717" width="351.438" height="351.318" transform="translate(-123.095 107.809) rotate(-41.212)" fill="#1d7083"/>
          </g>
        </g>
      </g>
      <g transform="matrix(1, 0, 0, 1, 577, 4502.54)" filter="url(#Elipse_11672)">
        <circle id="Elipse_11672-2" data-name="Elipse 11672" cx="72" cy="72" r="72" transform="translate(151 52.46)" fill="#fff"/>
      </g>
      <g transform="matrix(1, 0, 0, 1, 577, 4502.54)" filter="url(#Elipse_11673)">
        <circle id="Elipse_11673-2" data-name="Elipse 11673" cx="72" cy="72" r="72" transform="translate(53 222.46)" fill="#fff"/>
      </g>
      <g transform="matrix(1, 0, 0, 1, 577, 4502.54)" filter="url(#Trazado_999271)">
        <path id="Trazado_999271-2" data-name="Trazado 999271" d="M72,0A71.967,71.967,0,1,1,9.645,35.979,72,72,0,0,1,72,0Z" transform="translate(249 222.46)" fill="#fff"/>
      </g>
      <text id="Dimensión_Económica" data-name="Dimensión
Económica" transform="translate(800 4618)" fill="#212429" font-size="18" font-family="SegoeUI-Bold, Segoe UI" font-weight="700" letter-spacing="0em"><tspan x="-45.218" y="0">Dimensión</tspan><tspan x="-45.526" y="27">Económica</tspan></text>
      <text id="Dimensión_ambiental" data-name="Dimensión
ambiental" transform="translate(897 4796)" fill="#212429" font-size="18" font-family="SegoeUI-Bold, Segoe UI" font-weight="700" letter-spacing="0em"><tspan x="-45.218" y="0">Dimensión</tspan><tspan x="-42.45" y="27">ambiental</tspan></text>
      <text id="Dimensión_social" data-name="Dimensión
social" transform="translate(702 4796)" fill="#212429" font-size="18" font-family="SegoeUI-Bold, Segoe UI" font-weight="700" letter-spacing="0em"><tspan x="-45.218" y="0">Dimensión</tspan><tspan x="-23.744" y="27">social</tspan></text>
    </g>
  </g>
</svg>
