<svg xmlns="http://www.w3.org/2000/svg" width="62.017" height="61.973" viewBox="0 0 62.017 61.973">
  <g id="positive-thinking_7493133" transform="translate(-0.984 -1.027)">
    <g id="Artboard_03" data-name="Artboard 03">
      <path id="Trazado_1000810" data-name="Trazado 1000810" d="M13,50v-.425a15.329,15.329,0,0,0-4.741-10.94A19.8,19.8,0,0,1,4.99,34.424,22.608,22.608,0,0,1,3.328,15.532C6.351,7.039,13.328,3.876,18.1,2.7a24.474,24.474,0,0,1,5.871-.675h.048A24.474,24.474,0,0,1,29.9,2.7c4.777,1.177,11.754,4.34,14.777,12.833a22.955,22.955,0,0,1,1.3,8.815L37.039,42.1A14.891,14.891,0,0,0,35,49.575V50Z" fill="#ffc239"/>
      <path id="Trazado_1000811" data-name="Trazado 1000811" d="M44.672,15.532C41.65,7.04,34.674,3.877,29.9,2.7a24.541,24.541,0,0,0-5.873-.675h-.048c-.383,0-.766.014-1.148.03a19.774,19.774,0,0,0-13.5,12.478A22.608,22.608,0,0,0,10.99,33.424a19.776,19.776,0,0,0,3.269,4.21A15.337,15.337,0,0,1,19,48.575a.425.425,0,0,0,.425.425h15.6a14.925,14.925,0,0,1,2.019-6.9l8.933-17.752a22.955,22.955,0,0,0-1.305-8.816Z" fill="#ffce61"/>
      <circle id="Elipse_11720" data-name="Elipse 11720" cx="13" cy="13" r="13" transform="translate(36 24)" fill="#efac26"/>
      <ellipse id="Elipse_11721" data-name="Elipse 11721" cx="11.5" cy="12.907" rx="11.5" ry="12.907" transform="translate(39 24.093)" fill="#ffc239"/>
      <rect id="Rectángulo_412801" data-name="Rectángulo 412801" width="30" height="8" rx="2" transform="translate(9 50)" fill="#ced4e0"/>
      <path id="Trazado_1000812" data-name="Trazado 1000812" d="M11,58l.621,2.485A2,2,0,0,0,13.562,62H34.438a2,2,0,0,0,1.941-1.515L37,58Z" fill="#74777e"/>
      <path id="Trazado_1000813" data-name="Trazado 1000813" d="M9,53H39v2H9Z" fill="#9b9fa8"/>
      <path id="Trazado_1000814" data-name="Trazado 1000814" d="M20,19H14a2,2,0,0,0-2,2v4a2,2,0,0,0,2,2h6v6a2,2,0,0,0,2,2h4a2,2,0,0,0,2-2V27h6a2,2,0,0,0,2-2V21a2,2,0,0,0-2-2H28V13a2,2,0,0,0-2-2H22a2,2,0,0,0-2,2Z" fill="#94d531"/>
      <path id="Trazado_1000815" data-name="Trazado 1000815" d="M49,47A10.011,10.011,0,0,1,39,37h2a8,8,0,0,0,16,0h2A10.011,10.011,0,0,1,49,47Z" fill="#fff"/>
      <rect id="Rectángulo_412802" data-name="Rectángulo 412802" width="4" height="4" rx="2" transform="translate(42 31)" fill="#ffc239"/>
      <rect id="Rectángulo_412803" data-name="Rectángulo 412803" width="4" height="4" rx="2" transform="translate(52 31)" fill="#ffc239"/>
      <g id="Grupo_1165528" data-name="Grupo 1165528">
        <path id="Trazado_1000816" data-name="Trazado 1000816" d="M43.964,4.5h7.071v2H43.964Z" transform="translate(10.023 35.198) rotate(-45)" fill="#ffc239"/>
        <path id="Trazado_1000817" data-name="Trazado 1000817" d="M48.692,10.5h7.616v2H48.692Z" transform="matrix(0.919, -0.394, 0.394, 0.919, -0.283, 21.621)" fill="#ffc239"/>
        <path id="Trazado_1000818" data-name="Trazado 1000818" d="M51.5,15.964h2v7.071h-2Z" transform="matrix(0.141, -0.99, 0.99, 0.141, 25.771, 68.715)" fill="#ffc239"/>
      </g>
      <path id="Trazado_1000819" data-name="Trazado 1000819" d="M14.881,59.272A1.469,1.469,0,0,0,13.456,61.1l.165.66A1.986,1.986,0,0,0,13.7,62H34.438a2,2,0,0,0,1.941-1.515l.3-1.213Z" fill="#9b9fa8"/>
      <path id="Trazado_1000820" data-name="Trazado 1000820" d="M15.478,56.543H38.916A1.982,1.982,0,0,0,39,56V52a2,2,0,0,0-2-2H11.7v2.761a3.782,3.782,0,0,0,3.778,3.782Z" fill="#fff" opacity="0.2"/>
      <ellipse id="Elipse_11722" data-name="Elipse 11722" cx="2.384" cy="4.769" rx="2.384" ry="4.769" transform="matrix(0.5, -0.866, 0.866, 0.5, 30.042, 10.191)" fill="#fff"/>
      <ellipse id="Elipse_11723" data-name="Elipse 11723" cx="1.367" cy="1.972" rx="1.367" ry="1.972" transform="matrix(0.5, -0.866, 0.866, 0.5, 30.292, 14.668)" fill="#fff"/>
    </g>
    <g id="BG">
      <path id="Trazado_1000821" data-name="Trazado 1000821" d="M37,25V21a3,3,0,0,0-3-3H29V13a3,3,0,0,0-3-3H22a3,3,0,0,0-3,3v5H14a3,3,0,0,0-3,3v4a3,3,0,0,0,3,3h5v5a3,3,0,0,0,3,3h4a3,3,0,0,0,3-3V28h5a3,3,0,0,0,3-3Zm-2,0a1,1,0,0,1-1,1H28a1,1,0,0,0-1,1v6a1,1,0,0,1-1,1H22a1,1,0,0,1-1-1V27a1,1,0,0,0-1-1H14a1,1,0,0,1-1-1V21a1,1,0,0,1,1-1h6a1,1,0,0,0,1-1V13a1,1,0,0,1,1-1h4a1,1,0,0,1,1,1v6a1,1,0,0,0,1,1h6a1,1,0,0,1,1,1Z"/>
      <path id="Trazado_1000822" data-name="Trazado 1000822" d="M49,23a13.9,13.9,0,0,0-2,.16,23.787,23.787,0,0,0-1.386-7.96C42.5,6.452,35.478,3.045,30.134,1.728a25.674,25.674,0,0,0-6.157-.7,25.562,25.562,0,0,0-6.111.7C12.522,3.045,5.5,6.452,2.387,15.2A23.487,23.487,0,0,0,4.126,34.93,20.77,20.77,0,0,0,7.56,39.35,14.29,14.29,0,0,1,11.97,49H11a3,3,0,0,0-3,3v4a3,3,0,0,0,2.188,2.874l.463,1.854A3,3,0,0,0,13.562,63H34.438a3,3,0,0,0,2.911-2.273l.463-1.853A3,3,0,0,0,40,56V52a3,3,0,0,0-3-3h-.98a13.841,13.841,0,0,1,1.049-4.712A13.992,13.992,0,1,0,49,23ZM34.438,61H13.562a1,1,0,0,1-.971-.758L12.281,59H35.719l-.31,1.242a1,1,0,0,1-.971.758ZM37,57H11a1,1,0,0,1-1-1V55H38v1A1,1,0,0,1,37,57Zm1-5v1H10V52a1,1,0,0,1,1-1H37A1,1,0,0,1,38,52Zm-3.981-3H13.97A16.27,16.27,0,0,0,8.958,37.919a18.8,18.8,0,0,1-3.1-4A21.5,21.5,0,0,1,4.271,15.868c2.813-7.908,9.206-11,14.074-12.2a23.692,23.692,0,0,1,5.678-.647,23.631,23.631,0,0,1,5.632.646c4.868,1.2,11.261,4.291,14.074,12.2A21.792,21.792,0,0,1,44.974,23.6a13.953,13.953,0,0,0-9.028,18.42A15.961,15.961,0,0,0,34.019,49ZM49,49A12,12,0,1,1,61,37,12,12,0,0,1,49,49Z"/>
      <path id="Unión_1" data-name="Unión 1" d="M-121.83-4187.682h2a8.009,8.009,0,0,0,8,8,8.01,8.01,0,0,0,8-8h2a10,10,0,0,1-10,10A10,10,0,0,1-121.83-4187.682Zm12-4a3,3,0,0,1,3-3,3,3,0,0,1,3,3,3,3,0,0,1-3,3A3,3,0,0,1-109.83-4191.681Zm2,0a1,1,0,0,0,1,1,1,1,0,0,0,1-1,1,1,0,0,0-1-1A1,1,0,0,0-107.83-4191.681Z" transform="translate(160.83 4224.681)" fill="#ffc239"/>
      <path id="Trazado_1000824" data-name="Trazado 1000824" d="M44,36a3,3,0,1,0-3-3A3,3,0,0,0,44,36Zm0-4a1,1,0,1,1-1,1A1,1,0,0,1,44,32Z" fill="#ffc239"/>
      <path id="Trazado_1000826" data-name="Trazado 1000826" d="M43.964,4.5h7.071v2H43.964Z" transform="translate(10.023 35.198) rotate(-45)"/>
      <path id="Trazado_1000827" data-name="Trazado 1000827" d="M48.692,10.5h7.616v2H48.692Z" transform="matrix(0.919, -0.394, 0.394, 0.919, -0.285, 21.611)"/>
      <path id="Trazado_1000828" data-name="Trazado 1000828" d="M51.5,15.964h2v7.071h-2Z" transform="matrix(0.141, -0.99, 0.99, 0.141, 25.771, 68.715)"/>
    </g>
  </g>
</svg>
